<?xml version="1.0" encoding="UTF-8" standalone="no"?>
<!DOCTYPE svg PUBLIC "-//W3C//DTD SVG 1.1//EN" "http://www.w3.org/Graphics/SVG/1.1/DTD/svg11.dtd">
<!-- Created with Vectornator (http://vectornator.io/) -->
<svg height="100%" stroke-miterlimit="10" style="fill-rule:nonzero;clip-rule:evenodd;stroke-linecap:round;stroke-linejoin:round;" version="1.1" viewBox="0 0 250 200" width="100%" xml:space="preserve" xmlns="http://www.w3.org/2000/svg" xmlns:vectornator="http://vectornator.io" xmlns:xlink="http://www.w3.org/1999/xlink">
<defs/>
<g id="Layer-1" vectornator:layerName="Layer 1">
<path d="M125.281 5.272L41.3731 52.9396C41.3731 52.9396 40.6468 143.267 40.7635 147.728C40.8802 152.189 125.464 194.728 125.464 194.728L209.249 147.668L207.695 53.2736L125.281 5.272ZM123.665 36.18C163.107 34.994 181.178 67.9079 181.178 67.9079L152.986 84.1209C152.986 84.1209 147.273 69.8998 127.353 68.7276C107.433 67.5554 92.434 80.6979 92.6686 101.032C92.9031 121.367 104.878 132.842 125.524 133.519C146.171 134.196 153.26 117.124 153.26 117.124L181.971 132.73C181.971 132.73 162.639 164.791 121.989 164.943C81.3387 165.096 61.5407 130.536 60.1784 101.063C58.816 71.589 84.224 37.3661 123.665 36.18Z" fill="none" opacity="1" stroke="#ffffff" stroke-linecap="butt" stroke-linejoin="round" stroke-width="10" vectornator:layerName="Curve"/>
</g>
</svg>
