<?xml version="1.0" encoding="UTF-8" standalone="no"?>
<!DOCTYPE svg PUBLIC "-//W3C//DTD SVG 1.1//EN" "http://www.w3.org/Graphics/SVG/1.1/DTD/svg11.dtd">
<!-- Created with Vectornator (http://vectornator.io/) -->
<svg height="100%" stroke-miterlimit="10" style="fill-rule:nonzero;clip-rule:evenodd;stroke-linecap:round;stroke-linejoin:round;" version="1.1" viewBox="0 0 250 200" width="100%" xml:space="preserve" xmlns="http://www.w3.org/2000/svg" xmlns:vectornator="http://vectornator.io" xmlns:xlink="http://www.w3.org/1999/xlink">
<defs/>
<clipPath id="ArtboardFrame">
<rect height="200" width="250" x="0" y="0"/>
</clipPath>
<g clip-path="url(#ArtboardFrame)" id="Layer-1" vectornator:layerName="Layer 1">
<path d="M-10.1778 140.118L256.693 140.118" fill="none" opacity="1" stroke="#ffffff" stroke-linecap="butt" stroke-linejoin="round" stroke-width="9"/>
<path d="M60.2436-11.6836L60.0406 209.728" fill="none" opacity="1" stroke="#ffffff" stroke-linecap="butt" stroke-linejoin="round" stroke-width="9"/>
<path d="M32.4403-15.279C32.4403-15.279 56.9742 29.9542 104.891 48.6482C150.148 66.3043 188.91 66.1014 221.178 67.1161C253.446 68.1308 268.666 68.3338 268.666 68.3338" fill="none" opacity="1" stroke="#ffffff" stroke-linecap="butt" stroke-linejoin="round" stroke-width="12"/>
<path d="M42.9934 207.901C42.9934 207.901 60.6272 132.43 108.544 113.735C153.801 96.0794 189.316 95.4706 221.584 94.4558C253.852 93.4411 289.57 92.4264 289.57 92.4264" fill="none" opacity="1" stroke="#ffffff" stroke-linecap="butt" stroke-linejoin="round" stroke-width="12"/>
<path d="M112.381 38.0603L128.883 45.0952" fill="none" opacity="1" stroke="#ffffff" stroke-linecap="round" stroke-linejoin="round" stroke-width="6"/>
<path d="M171.312 38.6851L188.937 42.0234" fill="none" opacity="1" stroke="#ffffff" stroke-linecap="round" stroke-linejoin="round" stroke-width="6"/>
<path d="M231.412 39.6076L249.323 40.5978" fill="none" opacity="1" stroke="#ffffff" stroke-linecap="round" stroke-linejoin="round" stroke-width="6"/>
<path d="M111.293 80.1139L129.232 80.104" fill="none" opacity="1" stroke="#ffffff" stroke-linecap="round" stroke-linejoin="round" stroke-width="6"/>
<path d="M170.695 80.4208L188.634 80.411" fill="none" opacity="1" stroke="#ffffff" stroke-linecap="round" stroke-linejoin="round" stroke-width="6"/>
<path d="M230.557 81.0348L248.496 81.025" fill="none" opacity="1" stroke="#ffffff" stroke-linecap="round" stroke-linejoin="round" stroke-width="6"/>
<path d="M52.8893 34.6586L66.6282 46.1925" fill="none" opacity="1" stroke="#ffffff" stroke-linecap="round" stroke-linejoin="round" stroke-width="6"/>
<path d="M-3.5589 32.0139L5.17034 47.6851" fill="none" opacity="1" stroke="#ffffff" stroke-linecap="round" stroke-linejoin="round" stroke-width="6"/>
<path d="M51.5722 80.1139L69.5106 80.104" fill="none" opacity="1" stroke="#ffffff" stroke-linecap="round" stroke-linejoin="round" stroke-width="6"/>
<path d="M-8.72503 80.5269L9.21338 80.5171" fill="none" opacity="1" stroke="#ffffff" stroke-linecap="round" stroke-linejoin="round" stroke-width="6"/>
<path d="M112.519 122.701L129.66 117.413" fill="none" opacity="1" stroke="#ffffff" stroke-linecap="round" stroke-linejoin="round" stroke-width="6"/>
<path d="M171.77 122.95L189.395 119.611" fill="none" opacity="1" stroke="#ffffff" stroke-linecap="round" stroke-linejoin="round" stroke-width="6"/>
<path d="M231.87 122.027L249.781 121.037" fill="none" opacity="1" stroke="#ffffff" stroke-linecap="round" stroke-linejoin="round" stroke-width="6"/>
<path d="M53.3471 126.976L67.086 115.442" fill="none" opacity="1" stroke="#ffffff" stroke-linecap="round" stroke-linejoin="round" stroke-width="6"/>
<path d="M-3.10116 129.621L5.62808 113.95" fill="none" opacity="1" stroke="#ffffff" stroke-linecap="round" stroke-linejoin="round" stroke-width="6"/>
<path d="M115.135 167.197L126.129 153.023" fill="none" opacity="1" stroke="#ffffff" stroke-linecap="round" stroke-linejoin="round" stroke-width="6"/>
<path d="M172.658 165.482L188.05 156.269" fill="none" opacity="1" stroke="#ffffff" stroke-linecap="round" stroke-linejoin="round" stroke-width="6"/>
<path d="M231.98 162.93L248.756 156.577" fill="none" opacity="1" stroke="#ffffff" stroke-linecap="round" stroke-linejoin="round" stroke-width="6"/>
<path d="M56.2194 166.299L63.2982 149.816" fill="none" opacity="1" stroke="#ffffff" stroke-linecap="round" stroke-linejoin="round" stroke-width="6"/>
<path d="M-2.22767 170.096L2.00813 152.665" fill="none" opacity="1" stroke="#ffffff" stroke-linecap="round" stroke-linejoin="round" stroke-width="6"/>
<path d="M118.297 208.933L122.052 191.392" fill="none" opacity="1" stroke="#ffffff" stroke-linecap="round" stroke-linejoin="round" stroke-width="6"/>
<path d="M177.384 209.538L182.408 192.317" fill="none" opacity="1" stroke="#ffffff" stroke-linecap="round" stroke-linejoin="round" stroke-width="6"/>
<path d="M234.994 207.308L244.827 192.305" fill="none" opacity="1" stroke="#ffffff" stroke-linecap="round" stroke-linejoin="round" stroke-width="6"/>
<path d="M-2.68541 210.148L1.55039 192.717" fill="none" opacity="1" stroke="#ffffff" stroke-linecap="round" stroke-linejoin="round" stroke-width="6"/>
<path d="M113.011-4.63067L126.617 7.05885" fill="none" opacity="1" stroke="#ffffff" stroke-linecap="round" stroke-linejoin="round" stroke-width="6"/>
<path d="M171.62-4.63098L186.994 4.61222" fill="none" opacity="1" stroke="#ffffff" stroke-linecap="round" stroke-linejoin="round" stroke-width="6"/>
<path d="M231.277-3.72539L247.823 3.20356" fill="none" opacity="1" stroke="#ffffff" stroke-linecap="round" stroke-linejoin="round" stroke-width="6"/>
<path d="M53.9396-7.38369L63.9416 7.50751" fill="none" opacity="1" stroke="#ffffff" stroke-linecap="round" stroke-linejoin="round" stroke-width="6"/>
<path d="M-2.88837-9.00981L2.86344 7.98146" fill="none" opacity="1" stroke="#ffffff" stroke-linecap="round" stroke-linejoin="round" stroke-width="6"/>
<path d="M57.4787 206.751L61.2337 189.21" fill="none" opacity="1" stroke="#ffffff" stroke-linecap="round" stroke-linejoin="round" stroke-width="6"/>
</g>
</svg>
