<?xml version="1.0" encoding="UTF-8" standalone="no"?>
<!DOCTYPE svg PUBLIC "-//W3C//DTD SVG 1.1//EN" "http://www.w3.org/Graphics/SVG/1.1/DTD/svg11.dtd">
<!-- Created with Vectornator (http://vectornator.io/) -->
<svg height="100%" stroke-miterlimit="10" style="fill-rule:nonzero;clip-rule:evenodd;stroke-linecap:round;stroke-linejoin:round;" version="1.1" viewBox="0 0 250 200" width="100%" xml:space="preserve" xmlns="http://www.w3.org/2000/svg" xmlns:vectornator="http://vectornator.io" xmlns:xlink="http://www.w3.org/1999/xlink">
<defs/>
<g id="Layer-1" vectornator:layerName="Layer 1">
<path d="M97.4665 40.5579L55.7878 40.7948L55.2857 159.463L98.2197 159.463" fill="none" opacity="1" stroke="#ffffff" stroke-linecap="round" stroke-linejoin="round" stroke-width="12"/>
<path d="M78.6185 57.5226L78.7434 78.7324L99.4741 78.7324L99.3492 57.3722L78.6185 57.5226Z" fill="#ffffff" fill-rule="nonzero" opacity="1" stroke="#ffffff" stroke-linecap="butt" stroke-linejoin="round" stroke-width="5.42942"/>
<path d="M78.4667 89.7346L78.5915 110.944L99.3222 110.944L99.1973 89.5842L78.4667 89.7346Z" fill="#ffffff" fill-rule="nonzero" opacity="1" stroke="#ffffff" stroke-linecap="butt" stroke-linejoin="round" stroke-width="5.42942"/>
<path d="M78.4167 121.97L78.5416 143.18L99.2723 143.18L99.1474 121.82L78.4167 121.97Z" fill="#ffffff" fill-rule="nonzero" opacity="1" stroke="#ffffff" stroke-linecap="butt" stroke-linejoin="round" stroke-width="5.42942"/>
<path d="M120.727 57.4583L120.852 78.6682L141.583 78.6682L141.458 57.3079L120.727 57.4583Z" fill="#ffffff" fill-rule="nonzero" opacity="1" stroke="#ffffff" stroke-linecap="butt" stroke-linejoin="round" stroke-width="5.42942"/>
<path d="M120.576 89.6704L120.7 110.88L141.431 110.88L141.306 89.5199L120.576 89.6704Z" fill="#ffffff" fill-rule="nonzero" opacity="1" stroke="#ffffff" stroke-linecap="butt" stroke-linejoin="round" stroke-width="5.42942"/>
<path d="M120.526 121.906L120.651 143.116L141.381 143.116L141.256 121.755L120.526 121.906Z" fill="#ffffff" fill-rule="nonzero" opacity="1" stroke="#ffffff" stroke-linecap="butt" stroke-linejoin="round" stroke-width="5.42942"/>
<path d="M162.968 57.3078L163.093 78.5176L183.824 78.5176L183.699 57.1573L162.968 57.3078Z" fill="#ffffff" fill-rule="nonzero" opacity="1" stroke="#ffffff" stroke-linecap="butt" stroke-linejoin="round" stroke-width="5.42942"/>
<path d="M162.816 89.5198L162.941 110.73L183.672 110.73L183.547 89.3694L162.816 89.5198Z" fill="#ffffff" fill-rule="nonzero" opacity="1" stroke="#ffffff" stroke-linecap="butt" stroke-linejoin="round" stroke-width="5.42942"/>
<path d="M162.766 121.755L162.891 142.965L183.622 142.965L183.497 121.605L162.766 121.755Z" fill="#ffffff" fill-rule="nonzero" opacity="1" stroke="#ffffff" stroke-linecap="butt" stroke-linejoin="round" stroke-width="5.42942"/>
<path d="M162.889 40.7722L204.568 41.0091L205.07 159.677L162.136 159.677" fill="none" opacity="1" stroke="#ffffff" stroke-linecap="round" stroke-linejoin="round" stroke-width="12"/>
</g>
</svg>
